<mxfile host="app.diagrams.net" modified="2021-12-15T10:53:19.895Z" agent="5.0 (Windows)" etag="NXdfgFFbamIr1N1mWN65" version="15.9.5" type="github">
  <diagram id="fd4n77I02KMqg5OLKuqp" name="Page-1">
    <mxGraphModel dx="1038" dy="536" grid="1" gridSize="10" guides="1" tooltips="1" connect="1" arrows="1" fold="1" page="1" pageScale="1" pageWidth="850" pageHeight="1100" math="0" shadow="0">
      <root>
        <mxCell id="0" />
        <mxCell id="1" parent="0" />
        <mxCell id="MphkFnUnFCBE37njWN6I-1" value="customer" style="rounded=0;whiteSpace=wrap;html=1;" vertex="1" parent="1">
          <mxGeometry x="160" y="80" width="80" height="40" as="geometry" />
        </mxCell>
        <mxCell id="MphkFnUnFCBE37njWN6I-2" value="id" style="ellipse;whiteSpace=wrap;html=1;" vertex="1" parent="1">
          <mxGeometry x="40" width="80" height="40" as="geometry" />
        </mxCell>
        <mxCell id="MphkFnUnFCBE37njWN6I-3" value="email" style="ellipse;whiteSpace=wrap;html=1;" vertex="1" parent="1">
          <mxGeometry x="40" y="40" width="80" height="40" as="geometry" />
        </mxCell>
        <mxCell id="MphkFnUnFCBE37njWN6I-4" value="password" style="ellipse;whiteSpace=wrap;html=1;" vertex="1" parent="1">
          <mxGeometry x="40" y="80" width="80" height="40" as="geometry" />
        </mxCell>
        <mxCell id="MphkFnUnFCBE37njWN6I-5" value="name" style="ellipse;whiteSpace=wrap;html=1;" vertex="1" parent="1">
          <mxGeometry x="120" width="80" height="40" as="geometry" />
        </mxCell>
        <mxCell id="MphkFnUnFCBE37njWN6I-6" value="address" style="rounded=0;whiteSpace=wrap;html=1;" vertex="1" parent="1">
          <mxGeometry x="480" y="80" width="80" height="40" as="geometry" />
        </mxCell>
        <mxCell id="MphkFnUnFCBE37njWN6I-7" value="" style="endArrow=none;html=1;rounded=0;" edge="1" parent="1" source="MphkFnUnFCBE37njWN6I-4" target="MphkFnUnFCBE37njWN6I-1">
          <mxGeometry width="50" height="50" relative="1" as="geometry">
            <mxPoint x="400" y="250" as="sourcePoint" />
            <mxPoint x="450" y="200" as="targetPoint" />
          </mxGeometry>
        </mxCell>
        <mxCell id="MphkFnUnFCBE37njWN6I-8" value="" style="endArrow=none;html=1;rounded=0;" edge="1" parent="1" source="MphkFnUnFCBE37njWN6I-3" target="MphkFnUnFCBE37njWN6I-1">
          <mxGeometry width="50" height="50" relative="1" as="geometry">
            <mxPoint x="130" y="110" as="sourcePoint" />
            <mxPoint x="170" y="110" as="targetPoint" />
          </mxGeometry>
        </mxCell>
        <mxCell id="MphkFnUnFCBE37njWN6I-9" value="" style="endArrow=none;html=1;rounded=0;" edge="1" parent="1" source="MphkFnUnFCBE37njWN6I-2" target="MphkFnUnFCBE37njWN6I-1">
          <mxGeometry width="50" height="50" relative="1" as="geometry">
            <mxPoint x="123.53774465202537" y="80.89976701190824" as="sourcePoint" />
            <mxPoint x="170" y="96.66666666666663" as="targetPoint" />
          </mxGeometry>
        </mxCell>
        <mxCell id="MphkFnUnFCBE37njWN6I-10" value="" style="endArrow=none;html=1;rounded=0;" edge="1" parent="1" source="MphkFnUnFCBE37njWN6I-5" target="MphkFnUnFCBE37njWN6I-1">
          <mxGeometry width="50" height="50" relative="1" as="geometry">
            <mxPoint x="114.00000000000364" y="46.0000000000025" as="sourcePoint" />
            <mxPoint x="180" y="90" as="targetPoint" />
          </mxGeometry>
        </mxCell>
        <mxCell id="MphkFnUnFCBE37njWN6I-11" value="" style="endArrow=none;html=1;rounded=0;" edge="1" parent="1" source="MphkFnUnFCBE37njWN6I-1" target="MphkFnUnFCBE37njWN6I-12">
          <mxGeometry width="50" height="50" relative="1" as="geometry">
            <mxPoint x="400" y="250" as="sourcePoint" />
            <mxPoint x="450" y="200" as="targetPoint" />
          </mxGeometry>
        </mxCell>
        <mxCell id="MphkFnUnFCBE37njWN6I-12" value="Relationship" style="shape=rhombus;perimeter=rhombusPerimeter;whiteSpace=wrap;html=1;align=center;" vertex="1" parent="1">
          <mxGeometry x="310" y="75" width="100" height="50" as="geometry" />
        </mxCell>
        <mxCell id="MphkFnUnFCBE37njWN6I-13" value="" style="endArrow=none;html=1;rounded=0;exitX=1;exitY=0.5;exitDx=0;exitDy=0;" edge="1" parent="1" source="MphkFnUnFCBE37njWN6I-12" target="MphkFnUnFCBE37njWN6I-6">
          <mxGeometry relative="1" as="geometry">
            <mxPoint x="340" y="230" as="sourcePoint" />
            <mxPoint x="500" y="230" as="targetPoint" />
          </mxGeometry>
        </mxCell>
      </root>
    </mxGraphModel>
  </diagram>
</mxfile>
